<svg width="63" height="64" viewBox="0 0 63 64" fill="none" xmlns="http://www.w3.org/2000/svg">
<path d="M53.55 14.4564C53.55 17.0659 51.4345 19.1814 48.825 19.1814C46.2155 19.1814 44.1 17.0659 44.1 14.4564C44.1 11.8468 46.2155 9.73137 48.825 9.73137C51.4345 9.73137 53.55 11.8468 53.55 14.4564Z" fill="#FF6B00"/>
<path fill-rule="evenodd" clip-rule="evenodd" d="M31.5 47.5314C40.1985 47.5314 47.25 40.4799 47.25 31.7814C47.25 23.0829 40.1985 16.0314 31.5 16.0314C22.8015 16.0314 15.75 23.0829 15.75 31.7814C15.75 40.4799 22.8015 47.5314 31.5 47.5314ZM31.5 41.2314C36.7191 41.2314 40.95 37.0005 40.95 31.7814C40.95 26.5623 36.7191 22.3314 31.5 22.3314C26.2809 22.3314 22.05 26.5623 22.05 31.7814C22.05 37.0005 26.2809 41.2314 31.5 41.2314Z" fill="#FF6B00"/>
<path fill-rule="evenodd" clip-rule="evenodd" d="M0 30.5214C0 19.9364 0 14.6439 2.05998 10.601C3.87198 7.04469 6.76332 4.15336 10.3196 2.34135C14.3625 0.281372 19.655 0.281372 30.24 0.281372H32.76C43.345 0.281372 48.6375 0.281372 52.6804 2.34135C56.2367 4.15336 59.128 7.04469 60.94 10.601C63 14.6439 63 19.9364 63 30.5214V33.0414C63 43.6264 63 48.9189 60.94 52.9618C59.128 56.5181 56.2367 59.4094 52.6804 61.2214C48.6375 63.2814 43.345 63.2814 32.76 63.2814H30.24C19.655 63.2814 14.3625 63.2814 10.3196 61.2214C6.76332 59.4094 3.87198 56.5181 2.05998 52.9618C0 48.9189 0 43.6264 0 33.0414V30.5214ZM30.24 6.58137H32.76C38.1565 6.58137 41.8249 6.58627 44.6605 6.81795C47.4225 7.04361 48.835 7.45265 49.8203 7.95469C52.1911 9.16269 54.1187 11.0903 55.3267 13.4611C55.8287 14.4464 56.2378 15.8589 56.4634 18.6209C56.6951 21.4565 56.7 25.1249 56.7 30.5214V33.0414C56.7 38.4378 56.6951 42.1063 56.4634 44.9418C56.2378 47.7039 55.8287 49.1163 55.3267 50.1017C54.1187 52.4725 52.1911 54.4001 49.8203 55.6081C48.835 56.1101 47.4225 56.5191 44.6605 56.7448C41.8249 56.9765 38.1565 56.9814 32.76 56.9814H30.24C24.8435 56.9814 21.1751 56.9765 18.3395 56.7448C15.5775 56.5191 14.165 56.1101 13.1797 55.6081C10.8089 54.4001 8.88132 52.4725 7.67332 50.1017C7.17127 49.1163 6.76224 47.7039 6.53657 44.9418C6.3049 42.1063 6.3 38.4378 6.3 33.0414V30.5214C6.3 25.1249 6.3049 21.4565 6.53657 18.6209C6.76224 15.8589 7.17127 14.4464 7.67332 13.4611C8.88132 11.0903 10.8089 9.16269 13.1797 7.95469C14.165 7.45265 15.5775 7.04361 18.3395 6.81795C21.1751 6.58627 24.8435 6.58137 30.24 6.58137Z" fill="#FF6B00"/>
</svg>
