<svg width="118" height="35" viewBox="0 0 118 35" fill="none" xmlns="http://www.w3.org/2000/svg">
    <ellipse cx="97.7505" cy="17.5" rx="18.7398" ry="17.5" fill="#FF6B00"/>
    <path d="M23.2156 8.35785L15.0469 27.6758H8.64438L0.475656 8.35785H7.48531L12.094 19.645L16.8131 8.35785H23.2156ZM32.3263 24.3089H24.9855L23.6884 27.6758H17.0651L25.5098 8.35785H31.9124L40.357 27.6758H33.6234L32.3263 24.3089ZM30.5325 19.6174L28.6559 14.7604L26.7793 19.6174H30.5325ZM60.4384 8.35785V27.6758H55.0846L47.7438 18.8999V27.6758H41.3965V8.35785H46.7503L54.0911 17.1337V8.35785H60.4384ZM62.3346 8.35785H68.8475V27.6758H62.3346V8.35785ZM70.8789 8.35785H77.3918V22.6255H86.1125V27.6758H70.8789V8.35785ZM97.7701 28.1173C95.6911 28.1173 93.8237 27.685 92.1679 26.8203C90.5121 25.9556 89.215 24.7597 88.2767 23.2327C87.3384 21.6872 86.8693 19.9486 86.8693 18.0168C86.8693 16.085 87.3384 14.3556 88.2767 12.8286C89.215 11.2831 90.5121 10.0781 92.1679 9.21336C93.8237 8.34865 95.6911 7.9163 97.7701 7.9163C99.8491 7.9163 101.716 8.34865 103.372 9.21336C105.028 10.0781 106.325 11.2831 107.263 12.8286C108.202 14.3556 108.671 16.085 108.671 18.0168C108.671 19.9486 108.202 21.6872 107.263 23.2327C106.325 24.7597 105.028 25.9556 103.372 26.8203C101.716 27.685 99.8491 28.1173 97.7701 28.1173ZM97.7701 22.8463C98.5796 22.8463 99.3063 22.6531 99.9503 22.2668C100.613 21.862 101.137 21.3009 101.523 20.5833C101.91 19.8474 102.103 18.9919 102.103 18.0168C102.103 17.0417 101.91 16.1954 101.523 15.4779C101.137 14.742 100.613 14.1808 99.9503 13.7945C99.3063 13.3897 98.5796 13.1873 97.7701 13.1873C96.9606 13.1873 96.2247 13.3897 95.5623 13.7945C94.9184 14.1808 94.4033 14.742 94.0169 15.4779C93.6306 16.1954 93.4374 17.0417 93.4374 18.0168C93.4374 18.9919 93.6306 19.8474 94.0169 20.5833C94.4033 21.3009 94.9184 21.862 95.5623 22.2668C96.2247 22.6531 96.9606 22.8463 97.7701 22.8463Z" fill="white"/>
</svg>
