<svg width="102" height="49" viewBox="0 0 102 49" fill="none" xmlns="http://www.w3.org/2000/svg">
<path d="M28.0783 30.192C27.193 30.192 26.3343 30.0747 25.5023 29.84C24.681 29.5947 24.0196 29.28 23.5183 28.896L24.3983 26.944C24.8783 27.296 25.449 27.5787 26.1103 27.792C26.7716 28.0053 27.433 28.112 28.0943 28.112C28.8303 28.112 29.3743 28.0053 29.7263 27.792C30.0783 27.568 30.2543 27.2747 30.2543 26.912C30.2543 26.6453 30.1476 26.4267 29.9343 26.256C29.7316 26.0747 29.465 25.9307 29.1343 25.824C28.8143 25.7173 28.377 25.6 27.8223 25.472C26.969 25.2693 26.2703 25.0667 25.7263 24.864C25.1823 24.6613 24.713 24.336 24.3183 23.888C23.9343 23.44 23.7423 22.8427 23.7423 22.096C23.7423 21.4453 23.9183 20.8587 24.2703 20.336C24.6223 19.8027 25.1503 19.3813 25.8543 19.072C26.569 18.7627 27.4383 18.608 28.4623 18.608C29.177 18.608 29.8756 18.6933 30.5583 18.864C31.241 19.0347 31.8383 19.28 32.3503 19.6L31.5503 21.568C30.5156 20.9813 29.481 20.688 28.4463 20.688C27.721 20.688 27.1823 20.8053 26.8303 21.04C26.489 21.2747 26.3183 21.584 26.3183 21.968C26.3183 22.352 26.5156 22.64 26.9103 22.832C27.3156 23.0133 27.929 23.1947 28.7503 23.376C29.6036 23.5787 30.3023 23.7813 30.8463 23.984C31.3903 24.1867 31.8543 24.5067 32.2383 24.944C32.633 25.3813 32.8303 25.9733 32.8303 26.72C32.8303 27.36 32.649 27.9467 32.2863 28.48C31.9343 29.0027 31.401 29.4187 30.6863 29.728C29.9716 30.0373 29.1023 30.192 28.0783 30.192ZM36.7652 20.912H33.1812V18.8H42.9412V20.912H39.3572V30H36.7652V20.912ZM49.6036 30.192C48.4409 30.192 47.3902 29.9413 46.4516 29.44C45.5236 28.9387 44.7929 28.2507 44.2596 27.376C43.7369 26.4907 43.4756 25.4987 43.4756 24.4C43.4756 23.3013 43.7369 22.3147 44.2596 21.44C44.7929 20.5547 45.5236 19.8613 46.4516 19.36C47.3902 18.8587 48.4409 18.608 49.6036 18.608C50.7662 18.608 51.8116 18.8587 52.7396 19.36C53.6676 19.8613 54.3982 20.5547 54.9316 21.44C55.4649 22.3147 55.7316 23.3013 55.7316 24.4C55.7316 25.4987 55.4649 26.4907 54.9316 27.376C54.3982 28.2507 53.6676 28.9387 52.7396 29.44C51.8116 29.9413 50.7662 30.192 49.6036 30.192ZM49.6036 27.984C50.2649 27.984 50.8622 27.8347 51.3956 27.536C51.9289 27.2267 52.3449 26.8 52.6436 26.256C52.9529 25.712 53.1076 25.0933 53.1076 24.4C53.1076 23.7067 52.9529 23.088 52.6436 22.544C52.3449 22 51.9289 21.5787 51.3956 21.28C50.8622 20.9707 50.2649 20.816 49.6036 20.816C48.9422 20.816 48.3449 20.9707 47.8116 21.28C47.2782 21.5787 46.8569 22 46.5476 22.544C46.2489 23.088 46.0996 23.7067 46.0996 24.4C46.0996 25.0933 46.2489 25.712 46.5476 26.256C46.8569 26.8 47.2782 27.2267 47.8116 27.536C48.3449 27.8347 48.9422 27.984 49.6036 27.984ZM63.0396 30.192C61.8982 30.192 60.8636 29.9467 59.9356 29.456C59.0182 28.9547 58.2929 28.2667 57.7596 27.392C57.2369 26.5067 56.9756 25.5093 56.9756 24.4C56.9756 23.2907 57.2369 22.2987 57.7596 21.424C58.2929 20.5387 59.0182 19.8507 59.9356 19.36C60.8636 18.8587 61.9036 18.608 63.0556 18.608C64.0262 18.608 64.9009 18.7787 65.6796 19.12C66.4689 19.4613 67.1302 19.952 67.6636 20.592L65.9996 22.128C65.2422 21.2533 64.3036 20.816 63.1836 20.816C62.4902 20.816 61.8716 20.9707 61.3276 21.28C60.7836 21.5787 60.3569 22 60.0476 22.544C59.7489 23.088 59.5996 23.7067 59.5996 24.4C59.5996 25.0933 59.7489 25.712 60.0476 26.256C60.3569 26.8 60.7836 27.2267 61.3276 27.536C61.8716 27.8347 62.4902 27.984 63.1836 27.984C64.3036 27.984 65.2422 27.5413 65.9996 26.656L67.6636 28.192C67.1302 28.8427 66.4689 29.3387 65.6796 29.68C64.8902 30.0213 64.0102 30.192 63.0396 30.192ZM73.4939 25.6L71.9899 27.168V30H69.4139V18.8H71.9899V24.032L76.9499 18.8H79.8299L75.1899 23.792L80.1019 30H77.0779L73.4939 25.6Z" fill="#00FF19"/>
<rect x="1" y="1" width="100" height="47" stroke="#00FF19" stroke-width="2" stroke-dasharray="8 8"/>
</svg>
