<svg width="98" height="61" viewBox="0 0 98 61" fill="none" xmlns="http://www.w3.org/2000/svg">
<path d="M82.9243 36.9519C81.8687 35.4903 81.6322 34.0109 82.2091 32.512C83.6484 28.5127 104.612 3.112 95.8789 3.112C89.8778 3.19338 82.6609 3.112 76.9077 3.112C75.8396 3.37728 75.1485 3.94923 74.7161 5.11292C71.3519 13.0287 67.235 22.6887 61.2014 28.8971C60.4076 29.5502 59.9126 29.5223 59.0084 29.2808C54.776 24.7341 59.2889 9.15678 56.7151 3.00162C56.2078 1.7968 55.0975 1.25262 53.9615 0.946186C48.2155 -0.45117 35.0923 0.38058 32.951 3.19338C32.3389 3.99748 32.2536 4.43628 32.6954 4.50846C34.7356 4.83689 36.1798 5.62256 37.0298 6.86469C38.6335 10.4682 39.8152 29.6634 35.0923 29.6634C30.3693 29.6634 22.7533 10.8254 20.661 5.60317C20.1043 4.03077 18.6869 3.12932 17.1935 2.86322L3.22074 2.97225C0.764679 2.97225 -0.607969 4.20853 0.262557 6.69922C7.54015 25.1328 23.466 60.8633 47.8922 59.9688C50.3391 59.9688 54.5487 60.9274 56.4597 58.7628C59.0859 55.2075 55.883 48.8756 60.3863 46.4608C61.522 45.8442 62.6992 46.3611 63.675 47.1192C68.6841 51.0112 71.3436 57.8425 77.5209 59.9162C78.607 60.2813 79.5587 60.3727 80.3758 60.1901L93.4301 59.9713C95.8538 59.9713 98.2412 58.871 97.7397 55.9144C95.8365 49.5739 88.2528 43.0563 82.9243 36.9519Z" fill="#FF6B00"/>
</svg>
