<svg width="61" height="61" viewBox="0 0 61 61" fill="none" xmlns="http://www.w3.org/2000/svg">
<path fill-rule="evenodd" clip-rule="evenodd" d="M30.5 61C47.3447 61 61 47.3447 61 30.5C61 13.6553 47.3447 0 30.5 0C13.6553 0 0 13.6553 0 30.5C0 35.9701 1.44003 41.1039 3.96168 45.543L0 61L15.9359 57.3047C20.2637 59.6611 25.2255 61 30.5 61ZM30.5 56.3077C44.7532 56.3077 56.3077 44.7532 56.3077 30.5C56.3077 16.2468 44.7532 4.69231 30.5 4.69231C16.2468 4.69231 4.69231 16.2468 4.69231 30.5C4.69231 36.0032 6.41481 41.1041 9.35008 45.293L7.03846 53.9615L15.8598 51.7562C20.0197 54.6267 25.0635 56.3077 30.5 56.3077Z" fill="#FF6B00"/>
<path d="M22.7857 16.2399C22.0722 14.6793 20.9777 14.8175 19.8719 14.8175C17.8958 14.8175 14.8145 17.3951 14.8145 22.1922C14.8145 26.1237 16.4054 30.4274 21.7663 36.8653C26.9399 43.0783 33.7378 46.2924 39.3813 46.1829C45.0248 46.0735 46.1859 40.7851 46.1859 38.9992C46.1859 38.2076 45.7348 37.8127 45.4241 37.7054C43.5009 36.7003 39.9539 34.8276 39.1469 34.4757C38.3398 34.1239 37.9184 34.5998 37.6564 34.8587C36.9246 35.6182 35.4738 37.8565 34.977 38.36C34.4803 38.8634 33.7397 38.6086 33.4315 38.4183C32.2975 37.9228 29.2225 36.4334 26.7715 33.846C23.7403 30.6462 23.5624 29.5453 22.9913 28.5654C22.5344 27.7814 22.8696 27.3004 23.0369 27.0902C23.69 26.2696 24.5918 25.0027 24.9963 24.3731C25.4007 23.7435 25.0796 22.7876 24.887 22.1922C24.0585 19.6317 23.3565 17.4883 22.7857 16.2399Z" fill="#FF6B00"/>
</svg>
