<svg width="84" height="60" viewBox="0 0 84 60" fill="none" xmlns="http://www.w3.org/2000/svg">
<path d="M3.13974 11.9796C3.44506 7.2791 7.22173 3.58306 11.9527 3.34868C20.553 2.92259 32.7989 2.41129 42 2.41129C51.2011 2.41129 63.447 2.92259 72.0473 3.34868C76.7783 3.58306 80.5549 7.2791 80.8603 11.9796C81.229 17.6569 81.5887 24.5908 81.5887 30C81.5887 35.4092 81.229 42.3431 80.8603 48.0204C80.5549 52.7209 76.7783 56.4169 72.0473 56.6513C63.447 57.0774 51.2011 57.5887 42 57.5887C32.7989 57.5887 20.553 57.0774 11.9527 56.6513C7.22173 56.4169 3.44506 52.7209 3.13974 48.0204C2.77097 42.3431 2.41129 35.4092 2.41129 30C2.41129 24.5908 2.77097 17.6569 3.13974 11.9796Z" stroke="#FF6B00" stroke-width="4.82259"/>
<path d="M33.001 18V41.9999L57.001 29.9999L33.001 18Z" fill="#FF6B00"/>
</svg>
